<?xml version="1.0" encoding="utf-8"?>
<!-- Generator: Adobe Illustrator 19.0.0, SVG Export Plug-In . SVG Version: 6.00 Build 0)  -->
<svg version="1.1" id="layer" xmlns="http://www.w3.org/2000/svg" xmlns:xlink="http://www.w3.org/1999/xlink" x="0px" y="0px"
	 viewBox="-153 -46 652 652" style="enable-background:new -153 -46 652 652;" xml:space="preserve">
<style type="text/css">
	.st0{fill:#E95420;}
</style>
<path class="st0" d="M-59.9,283.8c1.6,0,2.8,1.3,2.8,2.8s-1.3,2.8-2.8,2.8c-1.6,0-2.8-1.3-2.8-2.8S-61.5,283.8-59.9,283.8
	L-59.9,283.8z M-44.1,275.3h-23.7l-34.2-22.6l1.4-3.4l25.7,5.3l0.1-19.5l13.1,15.2l21.3-23.2l3.2,1.9l-10.4,30.5l31.2-9
	c-9.5-20.9-30.5-35.4-54.8-35.4c-33.2,0-60.2,27-60.2,60.2c0,18.1,8,34.4,20.7,45.4v-11.5c0-3.1,2.5-5.6,5.6-5.6
	c3.1,0,5.6,2.5,5.6,5.6v19.3c1.2,0.7,2.5,1.3,3.8,1.8v-21.1c0-3.1,2.5-5.6,5.6-5.6s5.6,2.5,5.6,5.6V334c1.2,0.3,2.5,0.5,3.8,0.7
	v-25.5c0-3.1,2.5-5.6,5.6-5.6s5.6,2.5,5.6,5.6v26.2c0,0,0,0,0,0.1c1.3,0,2.5-0.1,3.8-0.2v-48.6c0-3.1,2.5-5.6,5.6-5.6
	c3.1,0,5.6,2.5,5.6,5.6V333c25-7.3,43.2-30.5,43.2-57.8c0-6.9-1.2-13.6-3.4-19.8L-44.1,275.3L-44.1,275.3L-44.1,275.3z"/>
<path d="M43.5,321.4c-4.7,0-8.8-0.7-12.4-2.2c-3.6-1.5-6.5-3.6-8.9-6.4s-4.2-6.1-5.4-9.9s-1.9-8.1-1.9-12.8c0-4.7,0.6-9.1,1.9-12.9
	c1.3-3.9,3.1-7.2,5.5-10c2.4-2.8,5.3-5,8.7-6.5c3.4-1.5,7.3-2.3,11.5-2.3c3.3,0,6.3,0.3,9.2,0.8c2.8,0.5,5,1.2,6.6,2.1l-2,6.5
	c-1.6-0.8-3.3-1.4-5.2-1.9c-1.9-0.5-4.5-0.7-7.8-0.7c-6.7,0-11.8,2.2-15.2,6.5c-3.5,4.3-5.2,10.4-5.2,18.4c0,3.6,0.4,6.9,1.2,9.9
	c0.8,3,2,5.6,3.8,7.7c1.7,2.1,4,3.8,6.8,5c2.8,1.2,6.1,1.8,10.1,1.8c3.3,0,6-0.4,8.2-1.1c2.2-0.7,3.8-1.4,4.8-1.9l1.6,6.5
	c-1.4,0.8-3.6,1.5-6.6,2.3C49.9,321,46.8,321.4,43.5,321.4z M84.9,321.2c-2.6-0.1-4.8-0.4-6.7-1c-1.9-0.6-3.5-1.5-4.8-2.7
	c-1.3-1.2-2.3-2.8-2.9-4.7c-0.7-1.9-1-4.3-1-7.2V231l7.6-1.4v75.8c0,1.9,0.2,3.4,0.5,4.5c0.3,1.1,0.9,2,1.6,2.7
	c0.7,0.7,1.6,1.1,2.7,1.5c1.1,0.3,2.5,0.6,4,0.8L84.9,321.2z M148.1,290c0,4.7-0.7,9.1-2,12.9c-1.4,3.9-3.3,7.2-5.7,9.9
	c-2.4,2.7-5.3,4.8-8.7,6.4c-3.3,1.5-7,2.3-11.1,2.3c-4,0-7.7-0.8-11.1-2.3c-3.3-1.5-6.2-3.6-8.7-6.4c-2.4-2.7-4.4-6-5.7-9.9
	c-1.4-3.9-2-8.2-2-12.9c0-4.7,0.7-9.1,2-12.9c1.4-3.9,3.3-7.2,5.7-10c2.4-2.8,5.3-4.9,8.7-6.4c3.3-1.5,7-2.3,11.1-2.3
	c4,0,7.7,0.8,11.1,2.3c3.3,1.5,6.2,3.7,8.7,6.4s4.4,6.1,5.7,10C147.4,281,148.1,285.3,148.1,290z M140.1,290c0-7.5-1.7-13.5-5.2-18
	c-3.5-4.5-8.2-6.7-14.2-6.7c-6,0-10.7,2.2-14.2,6.7c-3.5,4.5-5.2,10.5-5.2,18s1.7,13.5,5.2,18s8.2,6.6,14.2,6.6
	c6,0,10.7-2.2,14.2-6.6S140.1,297.6,140.1,290z M208.2,318c-2.3,0.6-5.3,1.3-9.1,2.1c-3.8,0.8-8.5,1.2-14,1.2c-4.5,0-8.3-0.7-11.3-2
	s-5.5-3.2-7.3-5.6c-1.9-2.4-3.2-5.3-4-8.7c-0.8-3.4-1.2-7.2-1.2-11.3v-33.8h7.6v31.4c0,4.3,0.3,7.9,0.9,10.8c0.6,3,1.6,5.3,3,7.2
	c1.4,1.8,3.2,3.1,5.4,4c2.2,0.8,4.9,1.2,8.1,1.2c3.6,0,6.7-0.2,9.3-0.6c2.6-0.4,4.3-0.7,5-1v-52.9h7.6V318z M273.5,318.2
	c-2.3,0.8-5.1,1.5-8.6,2.2c-3.5,0.7-7.9,1-13.3,1c-4.4,0-8.5-0.7-12.1-2.2c-3.6-1.4-6.7-3.5-9.3-6.2c-2.6-2.7-4.6-6-6.1-9.9
	c-1.4-3.9-2.2-8.3-2.2-13.2c0-4.6,0.6-8.8,1.8-12.6c1.2-3.8,3-7.2,5.3-10c2.3-2.8,5.2-5,8.6-6.5c3.4-1.6,7.2-2.3,11.6-2.3
	c4,0,7.4,0.6,10.3,1.7c2.9,1.1,5,2.2,6.4,3.2V231l7.6-1.4V318.2z M266,270.8c-0.7-0.5-1.6-1.1-2.6-1.7c-1-0.6-2.3-1.2-3.7-1.7
	c-1.4-0.5-2.9-1-4.5-1.3s-3.3-0.5-5.1-0.5c-3.7,0-6.9,0.7-9.4,2c-2.5,1.3-4.6,3.1-6.1,5.3c-1.6,2.2-2.7,4.8-3.4,7.8
	c-0.7,3-1,6.2-1,9.5c0,7.9,2,14,5.9,18.2c4,4.2,9.2,6.4,15.7,6.4c3.7,0,6.7-0.2,9-0.5c2.3-0.3,4-0.7,5.2-1.1V270.8z M284.2,282.7
	h26.3v7.3h-26.3V282.7z M328.8,320.1h-7.6v-60.3h7.6V320.1z M330.6,241.6c0,1.8-0.5,3.2-1.6,4.3c-1.1,1-2.4,1.6-4,1.6
	s-2.9-0.5-4-1.6c-1.1-1-1.6-2.5-1.6-4.3s0.5-3.2,1.6-4.3c1.1-1,2.4-1.6,4-1.6s2.9,0.5,4,1.6C330,238.4,330.6,239.9,330.6,241.6z
	 M346.2,261.9c2.3-0.6,5.3-1.3,9.1-2.1c3.8-0.8,8.5-1.2,14-1.2c4.6,0,8.4,0.7,11.5,2c3.1,1.3,5.5,3.2,7.3,5.7
	c1.8,2.4,3.1,5.4,3.9,8.8c0.8,3.4,1.2,7.2,1.2,11.3v33.7h-7.6v-31.2c0-4.3-0.3-7.9-0.9-10.8s-1.6-5.4-2.9-7.2
	c-1.4-1.9-3.1-3.2-5.4-4c-2.2-0.8-5-1.2-8.3-1.2c-3.6,0-6.7,0.2-9.3,0.6s-4.3,0.7-5.1,1v52.9h-7.6V261.9z M417.5,320.1H410v-60.3
	h7.6V320.1z M419.3,241.6c0,1.8-0.5,3.2-1.6,4.3c-1.1,1-2.4,1.6-4,1.6s-2.9-0.5-4-1.6c-1.1-1-1.6-2.5-1.6-4.3s0.5-3.2,1.6-4.3
	c1.1-1,2.4-1.6,4-1.6s2.9,0.5,4,1.6C418.7,238.4,419.3,239.9,419.3,241.6z M442.1,259.8h24v6.4h-24v32.1c0,3.4,0.3,6.2,0.9,8.3
	s1.4,3.8,2.5,5c1.1,1.2,2.4,1.9,4,2.3c1.6,0.4,3.3,0.6,5.1,0.6c3.2,0,5.8-0.4,7.7-1.1c1.9-0.7,3.5-1.4,4.5-2l1.9,6.3
	c-1.1,0.7-3,1.5-5.7,2.4c-2.7,0.9-5.7,1.3-8.9,1.3c-3.7,0-6.9-0.5-9.4-1.5c-2.5-1-4.5-2.4-6.1-4.4c-1.5-2-2.6-4.4-3.2-7.4
	c-0.6-3-0.9-6.5-0.9-10.5v-55.5l7.6-1.4V259.8z"/>
</svg>
