<?xml version="1.0" encoding="UTF-8" standalone="no"?>
<!-- Generator: Adobe Illustrator 19.0.0, SVG Export Plug-In . SVG Version: 6.00 Build 0)  -->

<svg
   version="1.1"
   id="layer"
   x="0px"
   y="0px"
   viewBox="-153 -46 600.09998 120.4"
   xml:space="preserve"
   sodipodi:docname="tmp.svg"
   inkscape:version="1.1.2 (0a00cf5339, 2022-02-04)"
   width="600.09998"
   height="120.4"
   xmlns:inkscape="http://www.inkscape.org/namespaces/inkscape"
   xmlns:sodipodi="http://sodipodi.sourceforge.net/DTD/sodipodi-0.dtd"
   xmlns="http://www.w3.org/2000/svg"
   xmlns:svg="http://www.w3.org/2000/svg"><defs
   id="defs11" /><sodipodi:namedview
   id="namedview9"
   pagecolor="#ffffff"
   bordercolor="#666666"
   borderopacity="1.0"
   inkscape:pageshadow="2"
   inkscape:pageopacity="0.0"
   inkscape:pagecheckerboard="0"
   showgrid="false"
   inkscape:zoom="1.2944785"
   inkscape:cx="304.75592"
   inkscape:cy="65.277251"
   inkscape:window-width="1846"
   inkscape:window-height="1016"
   inkscape:window-x="74"
   inkscape:window-y="27"
   inkscape:window-maximized="1"
   inkscape:current-layer="layer"
   fit-margin-top="0"
   fit-margin-left="0"
   fit-margin-right="0"
   fit-margin-bottom="0" />
<style
   type="text/css"
   id="style2">
	.st0{fill:#E95420;}
</style>
<path
   class="st0"
   d="m -81.5,22.7 c 1.6,0 2.8,1.3 2.8,2.8 0,1.5 -1.3,2.8 -2.8,2.8 -1.6,0 -2.8,-1.3 -2.8,-2.8 0,-1.5 1.2,-2.8 2.8,-2.8 z m 15.8,-8.5 h -23.7 l -34.2,-22.6 1.4,-3.4 25.7,5.3 0.1,-19.5 13.1,15.2 21.3,-23.2 3.2,1.9 -10.4,30.5 31.2,-9 C -47.5,-31.5 -68.5,-46 -92.8,-46 c -33.2,0 -60.2,27 -60.2,60.2 0,18.1 8,34.4 20.7,45.4 V 48.1 c 0,-3.1 2.5,-5.6 5.6,-5.6 3.1,0 5.6,2.5 5.6,5.6 v 19.3 c 1.2,0.7 2.5,1.3 3.8,1.8 V 48.1 c 0,-3.1 2.5,-5.6 5.6,-5.6 3.1,0 5.6,2.5 5.6,5.6 v 24.8 c 1.2,0.3 2.5,0.5 3.8,0.7 V 48.1 c 0,-3.1 2.5,-5.6 5.6,-5.6 3.1,0 5.6,2.5 5.6,5.6 v 26.2 c 0,0 0,0 0,0.1 1.3,0 2.5,-0.1 3.8,-0.2 V 25.6 c 0,-3.1 2.5,-5.6 5.6,-5.6 3.1,0 5.6,2.5 5.6,5.6 v 46.3 c 25,-7.3 43.2,-30.5 43.2,-57.8 0,-6.9 -1.2,-13.6 -3.4,-19.8 l -29.4,19.9 z"
   id="path4" />
<path
   d="M 21.9,60.3 C 17.2,60.3 13.1,59.6 9.5,58.1 5.9,56.6 3,54.5 0.6,51.7 -1.8,48.9 -3.6,45.6 -4.8,41.8 -6,38 -6.7,33.7 -6.7,29 c 0,-4.7 0.6,-9.1 1.9,-12.9 1.3,-3.9 3.1,-7.2 5.5,-10 2.4,-2.8 5.3,-5 8.7,-6.5 3.4,-1.5 7.3,-2.3 11.5,-2.3 3.3,0 6.3,0.3 9.2,0.8 2.8,0.5 5,1.2 6.6,2.1 l -2,6.5 C 33.1,5.9 31.4,5.3 29.5,4.8 27.6,4.3 25,4.1 21.7,4.1 15,4.1 9.9,6.3 6.5,10.6 3,14.9 1.3,21 1.3,29 c 0,3.6 0.4,6.9 1.2,9.9 0.8,3 2,5.6 3.8,7.7 1.7,2.1 4,3.8 6.8,5 2.8,1.2 6.1,1.8 10.1,1.8 3.3,0 6,-0.4 8.2,-1.1 2.2,-0.7 3.8,-1.4 4.8,-1.9 l 1.6,6.5 c -1.4,0.8 -3.6,1.5 -6.6,2.3 -2.9,0.7 -6,1.1 -9.3,1.1 z m 41.4,-0.2 c -2.6,-0.1 -4.8,-0.4 -6.7,-1 -1.9,-0.6 -3.5,-1.5 -4.8,-2.7 -1.3,-1.2 -2.3,-2.8 -2.9,-4.7 -0.7,-1.9 -1,-4.3 -1,-7.2 v -74.6 l 7.6,-1.4 v 75.8 c 0,1.9 0.2,3.4 0.5,4.5 0.3,1.1 0.9,2 1.6,2.7 0.7,0.7 1.6,1.1 2.7,1.5 1.1,0.3 2.5,0.6 4,0.8 z m 63.2,-31.2 c 0,4.7 -0.7,9.1 -2,12.9 -1.4,3.9 -3.3,7.2 -5.7,9.9 -2.4,2.7 -5.3,4.8 -8.7,6.4 -3.3,1.5 -7,2.3 -11.1,2.3 -4,0 -7.7,-0.8 -11.1,-2.3 -3.3,-1.5 -6.2,-3.6 -8.7,-6.4 -2.4,-2.7 -4.4,-6 -5.7,-9.9 -1.4,-3.9 -2,-8.2 -2,-12.9 0,-4.7 0.7,-9.1 2,-12.9 1.4,-3.9 3.3,-7.2 5.7,-10 2.4,-2.8 5.3,-4.9 8.7,-6.4 3.3,-1.5 7,-2.3 11.1,-2.3 4,0 7.7,0.8 11.1,2.3 3.3,1.5 6.2,3.7 8.7,6.4 2.5,2.7 4.4,6.1 5.7,10 1.3,3.9 2,8.2 2,12.9 z m -8,0 c 0,-7.5 -1.7,-13.5 -5.2,-18 -3.5,-4.5 -8.2,-6.7 -14.2,-6.7 -6,0 -10.7,2.2 -14.2,6.7 -3.5,4.5 -5.2,10.5 -5.2,18 0,7.5 1.7,13.5 5.2,18 3.5,4.5 8.2,6.6 14.2,6.6 6,0 10.7,-2.2 14.2,-6.6 3.5,-4.4 5.2,-10.4 5.2,-18 z m 68.1,28 c -2.3,0.6 -5.3,1.3 -9.1,2.1 -3.8,0.8 -8.5,1.2 -14,1.2 -4.5,0 -8.3,-0.7 -11.3,-2 -3,-1.3 -5.5,-3.2 -7.3,-5.6 -1.9,-2.4 -3.2,-5.3 -4,-8.7 -0.8,-3.4 -1.2,-7.2 -1.2,-11.3 V -1.2 h 7.6 v 31.4 c 0,4.3 0.3,7.9 0.9,10.8 0.6,3 1.6,5.3 3,7.2 1.4,1.8 3.2,3.1 5.4,4 2.2,0.8 4.9,1.2 8.1,1.2 3.6,0 6.7,-0.2 9.3,-0.6 2.6,-0.4 4.3,-0.7 5,-1 V -1.1 h 7.6 z m 65.3,0.2 c -2.3,0.8 -5.1,1.5 -8.6,2.2 -3.5,0.7 -7.9,1 -13.3,1 -4.4,0 -8.5,-0.7 -12.1,-2.2 -3.6,-1.4 -6.7,-3.5 -9.3,-6.2 -2.6,-2.7 -4.6,-6 -6.1,-9.9 -1.4,-3.9 -2.2,-8.3 -2.2,-13.2 0,-4.6 0.6,-8.8 1.8,-12.6 1.2,-3.8 3,-7.2 5.3,-10 2.3,-2.8 5.2,-5 8.6,-6.5 3.4,-1.6 7.2,-2.3 11.6,-2.3 4,0 7.4,0.6 10.3,1.7 2.9,1.1 5,2.2 6.4,3.2 v -32.4 l 7.6,-1.4 z M 244.4,9.7 c -0.7,-0.5 -1.6,-1.1 -2.6,-1.7 -1,-0.6 -2.3,-1.2 -3.7,-1.7 -1.4,-0.5 -2.9,-1 -4.5,-1.3 -1.6,-0.3 -3.3,-0.5 -5.1,-0.5 -3.7,0 -6.9,0.7 -9.4,2 -2.5,1.3 -4.6,3.1 -6.1,5.3 -1.6,2.2 -2.7,4.8 -3.4,7.8 -0.7,3 -1,6.2 -1,9.5 0,7.9 2,14 5.9,18.2 4,4.2 9.2,6.4 15.7,6.4 3.7,0 6.7,-0.2 9,-0.5 2.3,-0.3 4,-0.7 5.2,-1.1 z m 18.2,11.9 h 26.3 v 7.3 H 262.6 Z M 307.2,59 h -7.6 V -1.3 h 7.6 z m 1.8,-78.5 c 0,1.8 -0.5,3.2 -1.6,4.3 -1.1,1 -2.4,1.6 -4,1.6 -1.6,0 -2.9,-0.5 -4,-1.6 -1.1,-1 -1.6,-2.5 -1.6,-4.3 0,-1.8 0.5,-3.2 1.6,-4.3 1.1,-1 2.4,-1.6 4,-1.6 1.6,0 2.9,0.5 4,1.6 1,1.1 1.6,2.6 1.6,4.3 z m 15.6,20.3 c 2.3,-0.6 5.3,-1.3 9.1,-2.1 3.8,-0.8 8.5,-1.2 14,-1.2 4.6,0 8.4,0.7 11.5,2 3.1,1.3 5.5,3.2 7.3,5.7 1.8,2.4 3.1,5.4 3.9,8.8 0.8,3.4 1.2,7.2 1.2,11.3 V 59 H 364 V 27.8 c 0,-4.3 -0.3,-7.9 -0.9,-10.8 -0.6,-2.9 -1.6,-5.4 -2.9,-7.2 -1.4,-1.9 -3.1,-3.2 -5.4,-4 -2.2,-0.8 -5,-1.2 -8.3,-1.2 -3.6,0 -6.7,0.2 -9.3,0.6 -2.6,0.4 -4.3,0.7 -5.1,1 v 52.9 h -7.6 V 0.8 Z M 395.9,59 h -7.5 V -1.3 H 396 V 59 Z m 1.8,-78.5 c 0,1.8 -0.5,3.2 -1.6,4.3 -1.1,1 -2.4,1.6 -4,1.6 -1.6,0 -2.9,-0.5 -4,-1.6 -1.1,-1 -1.6,-2.5 -1.6,-4.3 0,-1.8 0.5,-3.2 1.6,-4.3 1.1,-1 2.4,-1.6 4,-1.6 1.6,0 2.9,0.5 4,1.6 1,1.1 1.6,2.6 1.6,4.3 z m 22.8,18.2 h 24 v 6.4 h -24 v 32.1 c 0,3.4 0.3,6.2 0.9,8.3 0.6,2.1 1.4,3.8 2.5,5 1.1,1.2 2.4,1.9 4,2.3 1.6,0.4 3.3,0.6 5.1,0.6 3.2,0 5.8,-0.4 7.7,-1.1 1.9,-0.7 3.5,-1.4 4.5,-2 l 1.9,6.3 c -1.1,0.7 -3,1.5 -5.7,2.4 -2.7,0.9 -5.7,1.3 -8.9,1.3 -3.7,0 -6.9,-0.5 -9.4,-1.5 -2.5,-1 -4.5,-2.4 -6.1,-4.4 -1.5,-2 -2.6,-4.4 -3.2,-7.4 -0.6,-3 -0.9,-6.5 -0.9,-10.5 V -19 l 7.6,-1.4 z"
   id="path6" />
</svg>
