<?xml version="1.0" encoding="utf-8"?>
<!-- Generator: Adobe Illustrator 26.5.0, SVG Export Plug-In . SVG Version: 6.00 Build 0)  -->
<svg version="1.1" id="Layer_1" xmlns="http://www.w3.org/2000/svg" xmlns:xlink="http://www.w3.org/1999/xlink" x="0px" y="0px"
	 viewBox="0 0 512 512" style="enable-background:new 0 0 512 512;" xml:space="preserve">
<g id="XMLID_155_">
	<path id="XMLID_200_" d="M175.73,316.64c-15.15-11.92-31.42-23.43-42.51-39.56c-23.29-28.48-41.24-61.31-53.45-95.96
		c-7.44-22.45-9.96-46.58-19.5-68.32c-9.96-15.71,1.68-32.83,18.94-37.88c7.72-1.54,21.18-8.7,4.91-3.51
		c-14.59,10.66-15.99-9.68-0.98-10.94c10.24-1.4,14.03-9.68,10.52-17.26c-10.94-7.15,26.51-15.01,7.72-25.67
		c-19.64-21.18,27.5-25.25,15.85-1.26c-2.81,18.52,32.97-3.37,24.69,17.96c8.42,10.24,31.56,2.38,31,16.69
		c12.35,0.84,16.55,11.22,28.06,11.92c11.92,5.33,33.67,9.68,37.6,23.15c-11.78,9.4-39.28-19.36-40.54,6.59
		c3.65,38.3,2.67,77.86,16.69,114.47c6.59,22.17,22.73,39.56,37.32,56.82c13.89,16.83,32.69,28.76,51.91,38.72
		c16.83,8,34.93,13.19,53.31,16.55c7.44-5.75,20.62-26.79,32.27-17.96c0.56,10.1-23.01,21.04-1.12,19.92
		c12.91-3.93,21.88,9.96,32.41-2.53c9.82,11.64,40.68-7.44,33.67,16.27c-9.4,6.03-23.15,2.38-32.55,10.8
		c-15.57-7.72-27.92,6.87-45.03,5.05c-19.08,3.37-38.58,4.77-57.94,4.77c-31.7-2.53-64.25-3.51-94.41-14.59
		C207.3,336,190.74,326.32,175.73,316.64z M202.67,328.28c16.55,7.15,32.83,14.73,51.06,17.11c28.9,4.07,58.78,10.24,87.68,4.63
		c-13.19-5.89-26.65,2.24-39.84-4.21c-15.71,3.37-32.55-0.84-48.4-2.95c-18.1-8.14-37.74-13.61-54.71-24.13
		c-21.18-7.72,10.94,9.96,16.69,11.36c13.33,7.58-14.59-3.93-18.52-7.01c-11.08-6.17-12.49-4.91-1.12,1.4
		C197.9,325.76,200.14,327.16,202.67,328.28z M170.96,305.98c16.13,6.03-0.14-11.36-7.44-10.38c-3.23-5.61-12.49-9.26-6.03-12.35
		c-11.64,4.07-12.2-15.43-17.82-12.63c-12.35-3.93-4.77-17.82-19.64-26.23c-1.4-8.98-14.59-16.69-18.94-30.3
		c-1.82-6.87-15.01-26.79-7.01-8.28c6.87,17.82,18.94,33.11,29.04,48.26c7.86,14.45,17.11,29.6,31.28,38.72
		C159.6,297.42,164.23,304.43,170.96,305.98z M241.95,335.86c6.59,4.21,38.58,9.12,18.52,1.68
		C257.1,338.24,223.43,328,241.95,335.86z M169,276.66c7.72,5.89,31.28,0.7,11.78-3.51c-8.84-4.63-28.62-7.86-15.15,2.81L169,276.66
		z M206.46,296.58c18.94,5.33-15.85-11.92-4.63-1.96l2.53,1.12L206.46,296.58z M206.6,286.48c13.75,1.82-16.41-9.4-3.09-0.98
		L206.6,286.48z M254.43,315.94c12.91-7.72,8.56,17.96,21.74,2.1c13.05-9.54-11.22,11.78,4.77,1.68
		c11.64-7.72,28.76,3.65,39.56,7.44c7.72-0.42,15.29,6.73,23.29,2.38c15.29-4.07-30.02-6.17-18.1-13.47
		c-14.03,4.07-24.41-4.91-31.28-13.89c-15.71-3.65-33.95-11.64-41.81-25.67c-3.23-5.19,4.63,0.7-2.81-7.86
		c-9.54-8.42-14.17-17.96-20.62-28.2c-7.58-4.07-8.56-15.99-9.26-0.42c0-9.82-9.12-16.41-11.5-13.75c0-9.54,9.96-4.77,2.95-11.78
		c-1.54-9.82-6.45-20.06-7.86-31.14c-2.24-5.33-0.28-16.83-7.86-4.63c-2.81,12.77-0.84-15.71,3.37-6.31
		c5.61-9.54-1.96-8.42-2.38-7.15c3.65-8.14,2.24-19.64-0.98-15.15c1.96-8.56,3.09-31.56-2.95-27.5c3.65-8.98,6.87-41.1-8.84-28.9
		c-6.31,0.14-17.4,2.24-22.59,4.91c16.41,8.98-1.68,3.23-8.28,1.82c-0.84,8.42-7.44,4.77-15.71,4.77
		c13.19,1.68-6.45,13.47-14.03,8.84c-9.82,4.63,8.42,16.41,0.14,20.06c0.98,5.47-15.01-1.96-13.75,10.66
		c-9.54-4.07-1.26,15.01,3.51,8.56c16.13,4.35,11.36,14.31,11.78,23.85c-2.67,5.47-13.05-13.05-2.24-12.2
		c-8.42-13.75-9.4-4.91-16.41,1.4c-1.68,0.42,17.96,9.12,5.61,13.33c10.8,1.68,11.08,11.08,13.33,17.11
		c6.45,6.73,5.19-7.44,12.91,0.7c-4.91-7.29-26.09-20.34-8.98-16.13c-0.14-7.29-3.09-13.19,2.1-13.05
		c5.19-9.4-5.47,23.01,6.17,11.22c3.23-1.4,4.07-9.4,9.82,0.7c8.42,8.28,3.09,14.31-8.84,6.73c2.1,7.15,15.85,9.82,13.33,21.04
		c2.81,9.96,6.59,6.31,9.96,5.61c2.67,9.68,4.07,2.53,4.21-2.1c11.92,2.53,9.12,9.68,12.91,14.59c8.28,3.79-11.78-25.25,2.38-8.7
		c14.87,13.47,5.61,19.08-7.86,16.97c8.42-0.7,11.22,11.5,21.74,11.08c9.68,4.63,16.27,22.31-0.42,14.87
		c-5.75-5.19-26.23-11.64-9.54-1.68c15.43,7.15,27.64,11.36,42.51,20.34c10.66,7.58,15.29,16.27,19.22,17.96
		c-8.98,4.21-26.94-3.37-13.61-5.75c-8.42-1.54-17.68-5.75-9.68,4.63c6.73,5.75,24.13,5.05,27.22,5.75
		c-2.67,5.75-7.15,6.31,0.14,6.73C243.07,312.71,253.73,313.41,254.43,315.94z M237.88,269.22c-4.91-5.19-6.17-14.73-0.84-6.45
		C239.7,264.03,245.74,278.62,237.88,269.22z M206.46,217.31c-5.89-13.05,4.21-7.15,1.26,2.1L206.46,217.31z M152.45,181.4
		c-2.67-4.35-7.01-16.97-5.61-20.76c1.26,6.31,13.33,27.08,5.89,8.56c-8.14-15.43,9.82,5.05,11.64,8.84c0.84,3.79-5.05-0.98-0.98,8
		C156.09,175.79,159.18,191.64,152.45,181.4z M125.23,158.53c-6.17-6.17-10.66-11.78,0.28-3.79c4.21,0.14-9.4-12.91,0.98-4.21
		C137.57,152.64,131.96,168.49,125.23,158.53z M129.02,149.14c-18.1-15.99,22.59,8.42,2.95,2.95L129.02,149.14z M180.64,179.16
		c-7.86-4.63-2.1-32.97,0.56-13.61c7.58-2.53-0.42,9.96,5.19,9.82C185.69,183.22,183.03,186.03,180.64,179.16z M132.52,143.8
		c-11.64-15.99,33.67,16.13,7.44,4.07C137.29,147.17,133.93,146.89,132.52,143.8z M134.35,137.77c6.87-1.54,28.48,12.06,8.7,3.93
		C140.8,139.17,136.03,140.3,134.35,137.77z M193.41,167.23c0.7-13.75,4.07-8.28,0,1.96V167.23z M139.4,133
		c2.81-4.07-7.44-18.66,1.54-5.19c3.93,3.09,11.22,5.19,4.77,6.45C155.81,143.1,143.19,136.65,139.4,133z M184.29,125.57
		c-3.65-6.31,4.49-27.78,5.47-14.45c-3.79,10.38-1.12,16.13,1.54,2.24C196.21,102.42,190.32,134.97,184.29,125.57z M199.16,279.18
		c10.24,2.67,10.24-1.54,0.98-2.81c-4.91-4.63-20.76-9.54-6.59-0.56C194.39,278.2,197.34,278.06,199.16,279.18z M162.83,255.05
		c5.61,4.21,21.32,11.92,8,1.54c4.49-5.19-8.56-8-4.21-11.36c-10.94-6.73-8.7-6.17-0.98-5.89c-13.19-5.89,1.96-5.47,1.12-8.42
		c-5.05-0.98-25.25-8.98-13.33,0.7c-12.06-6.17-2.81,2.24-6.45,1.4c-12.35-3.37,10.94,9.4-1.96,6.17
		c7.01,5.61,19.08,14.31,2.95,5.89C145.85,248.18,159.46,252.81,162.83,255.05z M290.91,330.1c5.47-5.19,0.28,8.42,8.98-1.26
		c0.14-6.87-0.28-10.94-10.1-2.53C287.12,327.86,285.86,334.17,290.91,330.1z M202.39,273.29c6.03,5.33,27.64,3.93,7.29,0.7
		C206.6,269.5,190.46,270.62,202.39,273.29z M103.2,206.79c-8.7-12.49-5.47-18.1-13.89-28.2c-1.54-7.86-14.45-25.39-6.59-6.73
		C89.88,182.66,91.98,199.64,103.2,206.79z M314.48,333.75c9.12-5.89-2.1-5.05-1.68,0.56L314.48,333.75z M329.21,337.68
		c11.78-8.42-7.15-1.68-2.38,1.54L329.21,337.68z M132.52,212.4c8.56,1.96,34.37,21.18,19.08,1.4c-7.72-2.24-3.09-21.32-11.08-17.96
		c5.33,8.84,4.35,12.63-6.73,7.01c-14.03-6.87-7.86,3.37-5.19,6.17C124.95,209.88,133.65,212.26,132.52,212.4z M93.38,181.54
		c1.54-6.31-14.17-34.93-7.44-14.31C88.47,171.44,88.19,179.72,93.38,181.54z M362.17,329.82c8.56-1.68,27.92,4.35,31-2.24
		c-10.38-0.28-35.77-7.29-36.9,1.68l2.24,0.42L362.17,329.82z M97.31,144.93c8.56-3.37-15.57-7.01-1.68-0.56L97.31,144.93z
		 M70.52,115.05c-1.54-8.84-1.4-24.41,13.47-19.22c-19.78,3.93,13.75,24.55,9.54,8.28c8.28,0.42,16.27-4.91,11.92,3.23
		c16.41-1.82,27.78-15.99,43.63-14.03c12.35-1.68,25.81-2.81,39.14-7.86c10.94-0.84,21.46-12.49,15.43-19.5
		c-14.87-1.26-30.44,0.56-47,3.93c-18.24,3.79-34.79,10.94-53.17,14.03c-17.96,2.38,3.65,6.59-1.54,7.58
		c-9.4,3.23,11.22,5.47-1.26,8.84c-7.58-1.4-15.57-4.07-12.35-12.2c-17.26,2.24-32.27,9.4-18.66,26.79L70.52,115.05z M112.04,93.86
		c4.07-14.87,21.6,12.2,6.59,1.96C116.81,94.56,113.87,93.44,112.04,93.86z M120.18,86.85c0.56-6.87,16.97,3.65,2.67,2.53
		L120.18,86.85z M132.8,80.96c6.17-7.44,34.79-4.77,13.89-0.7C141.08,76.05,136.73,82.78,132.8,80.96z M180.78,75.2
		c3.93-10.1,15.01-4.07,1.82-2.1C182.89,74.22,182.19,78.43,180.78,75.2z M430.35,329.96c9.26,0,28.06-2.95,7.86-2.81
		C435.12,327.58,419.83,327.44,430.35,329.96z M111.34,127.25c7.44-0.56,11.78-8.28-1.4-7.86c-20.48-2.1,17.96,7.01-2.67,4.35
		C104.47,125.71,111.2,127.81,111.34,127.25z M100.82,68.19c13.33-4.49,31.7-9.68,38.02,2.24c-6.45-7.72-2.67-15.29,3.51-4.07
		c8.56,11.5,12.91-5.19,7.29-8.98c6.31,7.86,13.61,11.64,4.21,0.56c10.1-12.2-20.34,1.54-27.22,1.4
		C123.27,60.75,92.26,67.21,100.82,68.19z M108.68,53.18c7.58-5.75,26.37,3.37,14.31-5.75C121.86,46.3,96.61,54.3,108.68,53.18z
		 M136.45,54.3c8.98,0.28-3.79-12.06,6.73-6.45c-1.68-5.75-12.35-6.73-17.54-9.12C122.7,43.92,131.68,54.3,136.45,54.3z
		 M124.95,31.72c14.45-1.96-3.65-6.17-2.95-0.14L124.95,31.72z M103.63,15.16c-10.1-13.19,19.08,2.24,8.7-11.64
		C103.77-3.36,95.49,11.23,103.63,15.16z M233.67,85.16c4.63-8.28-19.22-11.08-3.09-2.95C231.99,82.78,231.71,85.73,233.67,85.16z"
		/>
	<path id="XMLID_201_" d="M139.4,391.69c-0.98,4.07-1.68,10.8-1.96,20.48c0,1.82-0.84,2.81-2.53,2.81c-1.68,0-2.95-0.84-3.51-2.38
		c-1.82-4.35-3.51-7.44-5.19-9.26c-1.96-2.1-4.49-3.37-7.72-3.79c-3.51-0.56-12.06-0.84-25.81-0.84c-3.09,0-5.19,0.28-6.17,0.98
		c-0.56,0.42-0.84,1.26-0.84,2.67v41.1c0,1.4,0.84,2.1,2.67,1.96c5.33,0,13.19-0.42,23.43-1.12c1.96-0.28,3.37-0.84,4.07-1.96
		c0.7-1.12,1.4-3.79,2.1-8.28c0.42-2.38,1.82-3.37,4.21-2.81c2.1,0.42,2.95,1.4,2.67,2.81c-1.68,8.28-2.24,18.94-1.68,32.13
		c0,1.54-0.98,2.38-2.95,2.53c-1.68,0.14-2.81-0.7-3.23-2.67c-1.54-7.58-4.49-11.64-8.7-12.06c-4.21-0.56-11.22-0.7-20.9-0.7
		c-1.12,0-1.68,0.42-1.68,1.12v40.82c0,3.09,1.12,5.05,3.37,6.17c1.82,0.84,5.47,1.68,11.36,2.38c2.95,0.28,4.21,1.54,3.93,3.93
		c-0.42,1.96-3.09,2.81-8,2.38c-14.31-1.12-26.23-1.12-35.49,0.14c-2.67,0.42-3.93-0.7-3.93-3.23c0-1.54,1.26-2.53,3.93-2.67
		c5.89-0.7,8.84-5.89,8.84-15.57v-77.72c0-3.93-0.7-7.01-2.1-9.26c-1.4-2.1-4.07-4.07-8-5.89c-2.38-1.12-3.37-2.53-2.67-4.49
		c0.28-1.12,0.84-1.82,1.4-1.96c0.56-0.14,2.24,0,4.77,0.42c3.79,0.56,12.77,0.84,26.94,0.84c16.69,0,31.14-0.42,43.35-1.12
		c4.07-0.28,6.03,0.14,6.03,0.98C139.4,391.13,139.4,391.41,139.4,391.69z"/>
	<path id="XMLID_202_" d="M198.18,506.87c0,2.38-1.4,3.51-4.07,3.23c-8.42-0.84-18.66-0.7-31,0.42c-2.53,0.28-4.07,0.14-4.63-0.14
		c-0.56-0.42-0.84-1.4-0.84-2.95c0-1.4,1.68-2.67,4.91-3.65c3.37-0.98,4.91-3.93,4.91-8.98v-82.21c0-4.91-0.7-8.56-2.1-10.8
		s-3.93-4.07-7.44-5.33c-1.82-0.7-2.81-1.54-2.81-2.81c0-1.82,1.4-3.23,4.07-4.07c4.07-1.26,8.42-3.37,12.77-6.17
		c3.65-2.24,5.89-3.23,6.87-3.23c2.24,0,3.37,1.54,3.37,4.63c0-0.28-0.14,2.81-0.42,9.12c-0.14,6.03-0.28,11.92-0.14,17.68
		l0.42,81.09c0,3.65,0.84,6.31,2.67,8c1.82,1.68,4.91,2.81,9.4,3.37C196.92,504.06,198.18,505.18,198.18,506.87z"/>
	<path id="XMLID_205_" d="M280.39,501.54c0,1.26-2.24,3.23-6.87,5.75c-4.63,2.53-8.28,3.93-11.08,3.93c-2.38,0-4.49-1.12-6.31-3.51
		c-1.82-2.24-3.09-3.51-3.79-3.51c-0.56,0-3.37,1.26-8.56,3.79c-5.19,2.53-10.38,3.79-15.71,3.79c-4.91,0-9.12-1.4-12.49-4.35
		c-3.65-3.23-5.47-7.58-5.47-13.05c0-10.52,11.92-17.96,35.91-22.45c4.07-0.84,6.17-2.38,6.31-5.05l0.14-5.75
		c0.42-9.96-4.07-14.87-13.19-14.87c-2.67,0-5.05,2.38-7.44,7.01c-2.38,4.63-5.61,7.15-10.1,7.58c-4.91,0.42-7.44-1.54-7.44-6.31
		c0-2.95,3.65-6.31,11.08-10.1c7.72-4.07,15.15-6.03,22.31-6.03c12.35,0,18.38,5.89,18.24,17.54l-0.42,37.46
		c0,3.93,1.54,5.89,5.05,5.89c0.7,0,1.96-0.14,3.79-0.42c1.82-0.28,2.95-0.42,3.23-0.42C279.4,498.03,280.39,499.15,280.39,501.54z
		 M252.33,480.77c0-1.54-0.28-2.53-0.98-2.95c-0.7-0.42-1.96-0.56-3.65-0.28c-14.59,2.67-21.88,7.29-21.88,14.31
		s3.79,10.38,11.36,10.38c3.09,0,6.17-0.56,9.4-1.68c3.79-1.4,5.61-2.95,5.61-4.77L252.33,480.77z"/>
	<path id="XMLID_206_" d="M347.86,491.01c0,6.45-2.53,11.5-7.44,15.29c-4.91,3.79-11.64,5.61-20.2,5.61
		c-5.75,0-11.36-0.56-17.12-1.82c-4.91-1.12-7.72-2.1-8.56-2.95c-0.42-0.84-0.7-5.05-0.7-12.49c0-3.23,0.7-4.91,2.24-5.05
		c1.4-0.14,2.67,0.56,3.79,2.38c4.49,8,11.92,11.92,22.03,11.92c8.56,0,12.77-2.95,12.77-8.84c0-2.67-0.98-4.77-2.95-6.59
		c-2.1-1.96-6.17-4.35-12.35-7.01c-8.84-3.93-14.73-7.44-17.68-10.38c-3.23-3.09-4.77-7.44-4.77-12.77c0-6.59,2.53-11.64,7.58-15.29
		c4.63-3.51,10.94-5.33,18.66-5.33c4.91,0,9.4,0.42,13.47,1.12c4.35,0.84,6.59,1.68,6.87,2.95c0.42,3.37,1.54,8.28,2.95,14.73
		c0.14,0.84-0.7,1.4-2.53,1.96c-1.96,0.42-3.37,0.14-3.93-0.98c-4.77-7.86-10.8-11.64-18.1-11.64c-8.28,0-12.49,2.67-12.49,8
		c0,2.95,1.12,5.33,3.37,7.01c1.96,1.54,6.73,3.93,14.03,7.15c7.72,3.37,13.05,6.31,15.85,8.98
		C346.04,480.63,347.86,485.26,347.86,491.01z"/>
	<path id="XMLID_207_" d="M454.62,507.01c0,2.1-1.4,3.23-4.21,3.37c-4.21,0-9.82,0.42-16.55,0.84c-3.37,0.7-5.75,0.28-7.29-1.26
		c-9.54-10.24-17.68-21.04-24.27-32.27c-0.56-0.98-1.26-1.4-2.1-1.4c-0.98,0-2.81,0.84-5.33,2.67c-2.81,1.54-4.21,3.79-4.21,6.73
		c0,2.1,0,5.05,0.14,8.84c0.14,3.93,1.12,6.45,2.95,7.58c1.26,0.84,4.21,1.54,8.84,1.96c2.81,0.42,4.21,1.4,4.21,3.23
		c0,1.4-0.28,2.24-0.7,2.53c-0.42,0.28-1.68,0.42-3.65,0.28c-6.03-0.56-16.27-0.28-30.72,0.84c-3.65,0.28-5.61-0.14-5.89-1.4
		c-0.14-0.42-0.14-0.98-0.14-1.82c0-1.82,1.82-3.37,5.61-4.21c3.37-0.84,5.05-4.77,5.05-11.78v-79.4c0-4.91-0.42-8.42-1.4-10.38
		c-1.26-2.53-4.07-4.49-8.42-5.75c-1.96-0.7-2.95-1.54-2.95-2.81c0-1.82,1.4-3.09,4.21-4.07c4.49-1.54,8.84-3.65,13.05-6.31
		c3.37-2.24,5.33-3.23,6.17-3.23c2.53,0,3.79,1.54,3.79,4.77c0-0.42,0,2.53-0.14,8.98c0,4.35-0.14,10.38-0.14,17.82l0.14,56.82
		c0,1.54,0.42,2.38,1.26,2.38s2.24-0.84,4.21-2.38c5.05-3.93,11.22-9.12,18.52-15.43c1.4-1.54,2.24-2.67,2.24-3.65
		c0-1.68-2.38-2.81-7.29-3.51c-2.1-0.28-3.09-1.4-2.95-3.51c0.14-2.1,1.26-3.09,3.23-2.67c4.35,0.56,10.66,0.98,19.08,0.98
		c5.75,0,11.64,0.14,17.4,0.14c1.82,0,2.81,1.12,2.81,3.37c0,2.1-1.54,3.23-4.49,3.37c-4.63,0.14-9.12,1.26-13.19,3.23
		c-5.75,2.67-11.92,7.15-18.38,13.75c-0.42,0.42-0.7,0.84-0.7,1.4c0,0.84,0.98,2.95,3.09,6.03c7.58,11.5,14.73,20.2,21.46,26.09
		c4.35,3.65,8.28,5.47,12.06,5.47c2.81,0,4.49,0.14,5.19,0.56C454.34,504.2,454.62,505.32,454.62,507.01z"/>
</g>
</svg>
